<svg version="1.1" xmlns="http://www.w3.org/2000/svg" xmlns:xlink="http://www.w3.org/1999/xlink" x="0px" y="0px" width="283.5px" height="283.5px" viewBox="0 0 283.5 283.5" style="enable-background:new 0 0 283.5 283.5;" xml:space="preserve" fill="none" stroke="#000000">
	<polygon points="74.5,103.8 3.2,136.6 3.2,183.4 74.5,170.4 "/>
	<polyline points="5.5,135.5 162.1,59.7 162.1,166.3 10.3,188.5 10.3,183.9 "/>
	<polyline points="3.2,183.4 11.9,184.1 84.6,171.7 84.6,159.4 150.8,144.9 150.8,86.8 84,113.7 84,107 74.5,103.8 "/>

	<polyline points="94.2,157.3 94.2,124.5 120.1,132 120.1,151.6 "/>
	<polyline points="150.8,137.6 143.5,139.3 143.5,146.5 "/>
	<polyline points="162.1,166.3 168.3,167.6 15.7,188.9 10.3,188.5 "/>
	<polyline points="162.1,59.7 168.3,64.4 168.3,167.6 "/>
	<polyline points="84,113.7 90.4,115.7 150.8,92.5 "/>

	<polyline points="168.3,147.2 212.6,159.9 212.6,171.1 168.5,161.2 "/>
	<polyline points="37.4,185.8 43.5,186.3 119,176.2 141.1,179.2 177.2,175.1 "/>
	<polyline points="201.3,156.6 201.3,107.2 198.3,105.6 177.2,111.9 177.2,149.8 "/>
	<polygon points="177.2,173.3 177.2,228.2 198.3,229.1 201.3,228.9 201.3,171.4 198.3,170.8 "/>
	<polyline points="43.5,186.3 43.5,219.4 119,221.3 141.1,220.8 177.2,221.8 "/>
	<polyline points="216.9,106.7 210.6,108.5 210.6,159.3 "/>
	<polyline points="210.6,171.3 210.6,226.2 216.9,226.4 "/>
	<polyline points="227.2,224.5 249.2,223.2 249.2,152.7 227.2,143.9 "/>
	<polygon points="227.2,225.7 227.2,137.3 259.1,151.2 259.1,131.1 216.9,106.7 216.9,226.4 "/>
	<polyline points="249.2,223.2 261.6,223.4 267,223.1 267,124.3 261.6,120.7 246.7,123.9 "/>

	<line x1="19.9" y1="214.1" x2="43.5" y2="214.1"/>
	<line x1="267" y1="214.1" x2="282.2" y2="214.1"/>
	<line x1="74.5" y1="170.4" x2="84.6" y2="171.7"/>
	<line x1="99.6" y1="112.2" x2="150.8" y2="129.4"/>
	<line x1="198.3" y1="170.8" x2="198.3" y2="229.1"/>
	<line x1="11.8" y1="144.7" x2="11.8" y2="172.2"/>
	<line x1="4.5" y1="174" x2="11.8" y2="172.2"/>
	<line x1="4.5" y1="147.6" x2="11.8" y2="144.7"/>
	<line x1="4.5" y1="147.6" x2="4.5" y2="174"/>
	<line x1="119" y1="176.2" x2="119" y2="221.3"/>
	<line x1="198.3" y1="155.8" x2="198.3" y2="105.6"/>
	<line x1="212.6" y1="171.1" x2="201.3" y2="172.4"/>
	<line x1="119" y1="176.2" x2="141.1" y2="179.2"/>
	<line x1="249.2" y1="152.7" x2="259.1" y2="151.2"/>
	<line x1="261.6" y1="120.7" x2="261.6" y2="223.4"/>
	<line x1="99.9" y1="220.8" x2="99.9" y2="182.2"/>
	<line x1="99.9" y1="182.2" x2="85" y2="184"/>
	<line x1="85" y1="184" x2="85" y2="220.5"/>
	<line x1="210.6" y1="123.1" x2="201.3" y2="125.3"/>
	<line x1="177.2" y1="131.2" x2="168.3" y2="133.3"/>
	<line x1="201.3" y1="172.4" x2="212.6" y2="171.1"/>
	<line x1="141.1" y1="179.2" x2="141.1" y2="220.8"/>
	<line x1="201.3" y1="222.5" x2="210.6" y2="222.7"/>
	<g>
		<polygon class="hatch" points="11.8,144.7 4.5,147.6 4.5,174 11.8,172.2 	"/>
		<polygon class="hatch" points="99.9,182.2 85,184 85,220.5 99.9,220.8 	"/>
		<polygon class="hatch" points="120.1,132 94.2,124.5 94.2,157.3 120.1,151.6 	"/>
	</g>
</svg>