<svg version="1.1" xmlns="http://www.w3.org/2000/svg" xmlns:xlink="http://www.w3.org/1999/xlink" x="0px" y="0px" width="283.5px" height="283.5px" viewBox="0 0 283.5 283.5" enable-background="new 0 0 283.5 283.5" xml:space="preserve" fill="none" stroke="black">
	<polyline points="26.9,100.3 26.9,223.8 20.6,222.7 20.6,103.7 26.9,100.3 214.4,154.9 "/>
	<line x1="214.4" y1="206.6" x2="26.9" y2="223.8"/>
	<polyline points="152.9,208.2 106.3,211.5 106.3,160.1 152.9,166.7 "/>
	<line x1="126.9" y1="169.1" x2="161.5" y2="165.9"/>
	<line x1="126.9" y1="207" x2="161.5" y2="208.6"/>
	<line x1="126.9" y1="169.1" x2="126.9" y2="207"/>
	<polygon points="166.7,208.2 166.7,166.7 161.5,165.9 161.5,208.6 "/>
	<polyline points="226.9,158.5 236.3,161.2 236.3,178.4 226.9,178.7 "/>
	<polyline points="226.9,205.4 236.3,204.6 252.2,205 252.2,144.1 188,111 120.9,127.6 "/>
	<line x1="188" y1="81.6" x2="188" y2="111"/>
	<polyline points="83.4,116.7 188,81.6 274.6,142 274.6,202.5 252.2,205 "/>
	<polyline points="252.2,144.1 241.5,145.4 226.9,138.9 "/>
	<polygon points="226.9,206.7 226.9,136.5 224.6,135.4 224.6,206.9 "/>
	<polyline points="181.8,145.4 214.4,140.5 214.4,206.6 "/>
	<line x1="214.4" y1="206.6" x2="224.6" y2="206.9"/>
	<polyline points="224.6,135.4 220.6,136 182.3,118.7 130.8,130.5 "/>
	<polyline points="194.8,124.4 176.1,128.2 176.1,143.7 "/>
	<polyline points="62.4,110.6 62.4,99.7 65.8,98.2 102,110.5 "/>
	<polyline points="186.2,201.6 196.2,201.1 196.2,180 186.2,179.1 "/>
	<polyline points="166.7,170.1 208.8,175.7 184.2,176.9 186.2,177.1 186.2,202.2 184.2,202.2 176.1,202.1 176.1,171.4 "/>
	<path d="M145.1,167.4v-0.1C145.1,167.3,145.1,167.4,145.1,167.4z"/>
	<path d="M226.9,202l9.4,0.2L226.9,202z"/>
	<polyline points="236.3,204.6 236.3,202.2 226.9,202.9 "/>
	<polyline points="226.9,147.1 231.2,146.6 231.2,159.8 "/>
	<polygon points="266.7,184.3 266.7,192.9 257.7,192.8 257.7,183.3 "/>
	<line x1="282.3" y1="194.2" x2="274.6" y2="194.2"/>
	<line x1="20.6" y1="206.1" x2="2.1" y2="206.8"/>
	<line x1="166.7" y1="207.2" x2="214.4" y2="203.8"/>
	<line x1="166.7" y1="168.6" x2="214.4" y2="175.3"/>
	<line x1="226.9" y1="177" x2="236.3" y2="178.3"/>
	<line x1="214.4" y1="179.3" x2="196.2" y2="180"/>
	<line x1="169.7" y1="121.6" x2="182.6" y2="126.8"/>
	<line x1="185.3" y1="146.4" x2="214.4" y2="142.2"/>
	<line x1="106.3" y1="162.2" x2="145.6" y2="167.3"/>
	<line x1="130.2" y1="165.3" x2="130.2" y2="168.8"/>
	<line x1="145.1" y1="127.2" x2="145.1" y2="134.7"/>
	<line x1="135.1" y1="207.3" x2="106.3" y2="209.1"/>
	<line x1="214.4" y1="201.8" x2="196.2" y2="201.1"/>
	<line x1="126.9" y1="202.9" x2="106.3" y2="202.2"/>
	<line x1="166.7" y1="202.5" x2="176.1" y2="202.1"/>
	<line x1="184.2" y1="202.2" x2="184.2" y2="176.9"/>
	<line x1="65.8" y1="111.6" x2="65.8" y2="98.2"/>
	<g>
		<polygon class="hatch" points="231.2,146.6 226.9,147.1 226.9,158.5 231.2,159.8 "/>
		<polygon class="hatch" points="266.7,184.3 257.7,183.3 257.7,192.8 266.7,192.9 "/>
	</g>
</svg>