<svg version="1.1" xmlns="http://www.w3.org/2000/svg" xmlns:xlink="http://www.w3.org/1999/xlink" x="0px" y="0px" width="283.5px" height="283.5px" viewBox="0 0 283.5 283.5" style="enable-background:new 0 0 283.5 283.5;" xml:space="preserve" fill="none" stroke="black">
	<polyline points="113.7,186.4 152.5,188.6 205,184.7 205,137.3 152.5,111.4 129.8,118.6 129.8,145.1 113.7,141.7 113.7,187.7 109.1,187.9 109.1,199.2 97.3,200.6 94.8,200.2 94.8,91.3 97.3,89.9 147.3,113 "/>
	<polyline points="282.9,213 234.7,208.1 224.5,213.7 224.5,194.6 109.1,187.9 "/>
	<line x1="224.5" y1="213.7" x2="109.1" y2="199.2"/>

	<polygon points="267.8,208.3 253,206.9 258.8,202.2 271.3,203.2 "/>
	<polyline points="253,206.9 253,209.1 267.8,210.6 271.3,205.1 271.3,203.2 "/>
	<polyline points="238,200.1 238,202.3 253,203.5 258.1,199.9 258.1,197.9 "/>
	<polygon points="238,200.1 253,201.2 258.1,197.9 245,197.1 "/>
	<polyline points="274.8,174.8 214.7,175.4 214.7,191.1 246.4,192.5 246.4,194.3 238,197.5 224.5,196.6 "/>
	<polyline points="234.7,192 224.5,194.6 238,195.3 246.4,192.5 "/>
	<polyline points="281.8,169.8 266.6,170.2 266.7,174.8 "/>
	<polyline points="282.9,169 265.3,169.5 265.3,174.9 "/>
	<polyline points="277.1,160.7 249.4,162.2 249.4,175.1 "/>
	<polyline points="186.3,128.1 186.3,125.7 224.5,117.4 226,118.8 226,175.3 "/>
	<polygon points="152.5,185.2 190.4,183.3 190.4,152.1 152.5,141.9 132.4,145.4 132.4,184.6 "/>
	<polyline points="113.7,142.9 126.9,145.6 129.8,145.1 "/>
	<polyline points="113.7,153.9 118.3,153.2 118.3,175.2 113.7,175.3 "/>
	<polyline points="94.8,156.6 85.7,157.9 85.7,175.8 94.8,175.6 "/>
	<polyline points="20.7,201.3 82.9,196 94.8,197.5 "/>
	<polyline points="64.9,185.4 63,185.5 25,183.2 25,113.2 63,83 64.9,83.6 64.9,185.4 "/>
	<polyline points="48.9,94.2 48.9,84.6 68.1,69.3 70.1,70.1 70.1,185.5 68.1,185.6 "/>
	<polyline points="94.8,130.8 81.9,135 81.9,184.5 94.8,185.3 "/>
	<polyline points="94.8,187.1 82.9,186.4 1.4,189.6 "/>
	<polygon points="25.9,126 33.4,121.3 33.4,141.5 25.9,144.5 "/>
	<polygon points="29.3,177 37.5,176.9 37.5,161.9 29.3,163.3 "/>
	<line x1="68.1" y1="69.3" x2="68.1" y2="185.6"/>
	<line x1="63" y1="83" x2="63" y2="185.5"/>
	<line x1="152.5" y1="111.4" x2="152.5" y2="188.6"/>
	<line x1="97.3" y1="89.9" x2="97.3" y2="200.6"/>
	<line x1="70.1" y1="184.8" x2="81.9" y2="184.5"/>
	<line x1="70.1" y1="158.4" x2="81.9" y2="159.2"/>
	<line x1="70.1" y1="85.6" x2="94.8" y2="96.1"/>
	<line x1="82.9" y1="186.4" x2="64.9" y2="185.4"/>
	<line x1="82.9" y1="186.4" x2="82.9" y2="196"/>
	<line x1="25" y1="183.2" x2="5.8" y2="183.6"/>
	<line x1="224.5" y1="117.4" x2="224.5" y2="175.3"/>
	<line x1="238" y1="195.3" x2="238" y2="197.5"/>
	<line x1="214.7" y1="184.9" x2="205" y2="184.7"/>
	<line x1="253" y1="201.2" x2="253" y2="203.5"/>
	<line x1="267.8" y1="208.3" x2="267.8" y2="210.6"/>
	<line x1="234.7" y1="197.3" x2="234.7" y2="208.1"/>
	<g>
		<polygon class="hatch" points="118.3,153.2 113.7,153.9 113.7,175.3 118.3,175.2 	"/>
		<polygon class="hatch" points="94.8,156.6 85.7,157.9 85.7,175.8 94.8,175.6 	"/>
		<polygon class="hatch" points="37.5,161.9 29.3,163.3 29.3,177 37.5,176.9 	"/>
		<polygon class="hatch" points="33.4,121.3 25.9,126 25.9,144.5 33.4,141.5 	"/>
		<polygon class="hatch" points="81.9,159.2 70.1,158.4 70.1,184.8 81.9,184.5 	"/>
		<path class="hatch"  d="M190.4,152.1l-37.9-10.2v43.3l37.9-1.9V152.1z M152.5,141.9l-20.1,3.5v39.2l20.1,0.7V141.9z"/>
	</g>
</svg>