<?xml version="1.0" encoding="utf-8"?>
<!-- Generator: Adobe Illustrator 27.4.1, SVG Export Plug-In . SVG Version: 6.00 Build 0)  -->
<svg version="1.1" id="Layer_1" xmlns="http://www.w3.org/2000/svg" xmlns:xlink="http://www.w3.org/1999/xlink" x="0px" y="0px"
	 viewBox="0 0 5463.4 3168.8" style="enable-background:new 0 0 5463.4 3168.8;" xml:space="preserve">
<style type="text/css">
	.st0{fill:#AA8F71;}
</style>
<g>
	<path class="st0" d="M3314.8,717.6c-87.1,0.6-174.1,1.3-261.2,1.9h-614.2l-301.3,301.3v1428.5h885.7l301.3-301.3v-885.7
		C3321.7,1080.7,3318.2,899.2,3314.8,717.6z M2981.9,2347.9h-742.4V1062.6c0,428.4,0,856.9,0,1285.3
		C2487,2347.9,2734.4,2347.9,2981.9,2347.9c-247.5,0-494.9,0-742.4,0C2487,2347.9,2734.4,2347.9,2981.9,2347.9z"/>
	<path class="st0" d="M2782.2,1092.2V990.9h-372.7v1186.9h644.1v-644.1h-271.4L2782.2,1092.2 M2952.4,2076.5h-441.5v-984.3H2681
		V1635h271.4V2076.5L2952.4,2076.5z"/>
</g>
</svg>
